# xmcd CD database file
#
# Track frame offsets:
#	150
#	23586
#	40908
#	63073
#	99070
#	120943
#	152335
#	177842
#	202936
#	213688
#	229295
#	247334
#	263002
#
# Disc length: 3714 seconds
#
# Revision: 2
# Processed by: cddbd v1.4b41PL1 Copyright (c) Steve Scherf et al.
# Submitted via: Feurio! 1.60 - http://www.feurio.com
#
DISCID=9e0e800d,af0e800d
DTITLE=Various Artist - Hardrock Spezial
DYEAR=1900
DGENRE=
TTITLE0=ACDC - Hells Bells
TTITLE1=ACDC - Dirty Deeds
TTITLE2=ACDC - Thunderstuck
TTITLE3=ACDC - Highway To Hell
TTITLE4=Black Sabath - Crazy Train
TTITLE5=Black Sabath - Heaven and Hell
TTITLE6=Black Sabath - Sabbath Bloody Sabath
TTITLE7=Led Zepplin - Whole Lot O Love
TTITLE8=Led Zepplin - Knocking On Heaven's Door
TTITLE9=Led Zepplin - Rock and Roll
TTITLE10=Thin Lizzy - Jail Break
TTITLE11=Steppenwolf - Born To Be Wild
TTITLE12=Metalicca - Nothing Else Matter
EXTD=
EXTT0=
EXTT1=
EXTT2=
EXTT3=
EXTT4=
EXTT5=
EXTT6=
EXTT7=Made with RealJukebox (tm)
EXTT8=
EXTT9=
EXTT10=
EXTT11=
EXTT12=
PLAYORDER=
